<?xml version="1.0" standalone="no"?>
<!DOCTYPE svg PUBLIC "-//W3C//DTD SVG 20010904//EN"
 "http://www.w3.org/TR/2001/REC-SVG-20010904/DTD/svg10.dtd">
<svg version="1.0" xmlns="http://www.w3.org/2000/svg"
 width="1500.000000pt" height="1500.000000pt" viewBox="0 0 1500.000000 1500.000000"
 preserveAspectRatio="xMidYMid meet">
<metadata>
Created by potrace 1.11, written by Peter Selinger 2001-2013
</metadata>
<g transform="translate(0.000000,1500.000000) scale(0.100000,-0.100000)"
fill="#000000" stroke="none">
<path d="M1745 11508 c-3 -13 -4 -1008 -3 -2213 l3 -2190 326 -3 326 -2 6 177
c4 98 7 401 7 673 0 841 13 2241 21 2233 4 -4 30 -141 58 -303 28 -162 102
-592 165 -955 63 -363 158 -912 211 -1220 53 -308 100 -570 105 -583 l10 -22
332 2 331 3 48 295 c27 162 69 433 94 603 25 169 68 424 95 568 64 334 270
1545 270 1586 0 4 5 2 11 -4 8 -8 13 -420 16 -1520 2 -829 6 -1514 8 -1520 3
-10 79 -13 331 -13 l327 0 -2 973 c-2 534 0 1531 4 2215 l7 1242 -520 0 c-487
0 -521 -1 -526 -17 -10 -34 -106 -572 -176 -988 -38 -231 -88 -523 -110 -650
-55 -316 -145 -842 -183 -1069 -18 -104 -37 -191 -43 -193 -7 -2 -14 16 -19
44 -3 26 -60 381 -125 788 -65 407 -146 916 -179 1130 -34 215 -83 516 -109
670 l-47 280 -532 3 -533 2 -5 -22z m2535 -1708 c0 -62 -13 -127 -28 -142 -20
-20 -33 62 -21 132 17 110 49 116 49 10z m457 -819 c46 -4 1 -343 -49 -375
-12 -7 -24 -6 -45 4 -39 20 -103 88 -103 110 0 9 -7 23 -15 30 -9 8 -15 30
-15 59 0 75 7 86 66 111 29 13 61 34 69 46 12 19 22 23 48 20 17 -2 37 -4 44
-5z m-2587 -446 c0 -58 -21 -125 -39 -125 -29 0 -24 100 7 153 24 40 32 33 32
-28z"/>
<path d="M6095 11519 c-2 -8 -18 -77 -34 -154 -17 -77 -95 -435 -175 -795 -79
-360 -174 -801 -211 -980 -36 -179 -92 -440 -125 -580 -32 -140 -77 -345 -100
-455 -23 -110 -70 -330 -106 -490 -64 -295 -204 -950 -204 -960 0 -3 198 -5
440 -5 l440 0 5 23 c3 12 21 114 40 227 58 346 67 437 47 490 l-10 25 -10 -25
c-31 -78 -32 -77 -27 25 7 133 -6 108 -40 -75 -14 -79 -29 -147 -32 -150 -6
-5 1 125 12 225 l5 50 -15 -40 c-14 -40 -14 -39 -9 40 5 83 30 202 45 221 5 6
25 68 44 137 46 169 87 250 100 195 2 -13 10 -43 17 -68 8 -27 13 -103 12
-192 -1 -140 0 -147 20 -152 12 -3 141 -6 289 -6 147 0 267 -3 267 -8 0 -6
145 -764 171 -889 l10 -53 440 0 c417 0 439 1 439 18 0 22 -43 218 -104 479
-25 105 -79 357 -120 560 -42 202 -98 469 -126 593 -61 268 -85 380 -185 855
-42 198 -89 421 -105 495 -32 151 -133 590 -185 805 -18 77 -41 175 -51 218
-9 42 -20 77 -24 77 -4 0 -11 -28 -14 -62 -16 -135 -75 -191 -76 -71 0 23 -4
44 -8 47 -5 3 -25 -8 -45 -25 l-36 -30 -13 23 c-21 37 -15 227 11 332 15 64
18 93 11 100 -7 7 -124 12 -340 15 -270 2 -331 1 -335 -10z m485 -1900 c44
-327 94 -689 110 -806 17 -116 30 -214 30 -217 0 -3 -106 -6 -236 -6 l-236 0
5 23 c10 37 72 464 147 997 70 498 88 615 96 608 2 -2 40 -272 84 -599z m-355
-171 c-20 -232 -63 -468 -84 -468 -16 0 -22 33 -33 165 -17 214 -19 206 62
324 51 73 64 68 55 -21z m-194 -30 c18 -33 14 -86 -14 -168 -13 -41 -34 -108
-46 -147 -12 -40 -25 -73 -29 -73 -16 1 -43 52 -52 97 -23 117 -24 117 -55 18
-38 -125 -65 -195 -75 -195 -16 0 -40 95 -40 161 0 74 28 179 56 210 35 39 83
15 85 -43 0 -15 3 -18 6 -8 3 8 11 22 18 30 7 8 16 26 20 40 4 14 18 42 32 63
31 44 74 52 94 15z"/>
<path d="M7884 11513 c2 -10 17 -63 31 -118 15 -55 123 -442 240 -860 117
-418 268 -953 334 -1190 66 -236 143 -511 171 -609 l50 -180 0 -728 0 -728
433 2 432 3 0 735 0 735 108 375 c149 514 727 2564 727 2575 0 3 -184 5 -410
5 -225 0 -410 -2 -410 -4 0 -9 -202 -876 -304 -1301 -57 -242 -112 -477 -122
-522 -11 -54 -22 -83 -31 -83 -7 0 -13 3 -13 8 0 13 -120 564 -141 646 -11 44
-27 119 -35 166 -7 47 -24 116 -36 154 l-23 69 -11 -77 c-13 -80 -51 -172 -70
-169 -6 1 -22 -9 -34 -22 -51 -55 -77 -21 -67 88 7 87 33 147 62 147 13 0 27
-5 30 -10 12 -19 24 0 45 66 26 86 25 136 -6 296 -29 152 -102 504 -110 531
-5 16 -34 17 -425 17 -396 0 -420 -1 -415 -17z"/>
<path d="M10660 11433 c0 -159 8 -200 42 -224 27 -20 30 -20 47 -5 10 9 23 16
29 16 23 0 80 -61 96 -105 10 -25 22 -45 26 -45 5 0 23 20 40 45 21 30 38 45
49 43 10 -2 24 2 32 8 8 7 22 9 35 4 18 -7 24 -25 38 -102 21 -115 31 -140 53
-136 26 5 34 -42 39 -227 6 -199 8 -209 34 -177 10 12 20 22 23 22 8 0 36 -94
42 -144 7 -60 -10 -157 -37 -214 -19 -40 -22 -43 -59 -40 -31 1 -45 -4 -70
-28 -29 -28 -31 -28 -45 -10 -7 11 -21 40 -30 65 -23 61 -41 81 -75 81 -15 0
-60 13 -101 29 -40 16 -98 32 -129 36 -49 6 -57 5 -63 -12 -26 -63 -9 -1941
18 -2131 58 -400 149 -627 335 -834 145 -161 380 -272 663 -314 157 -23 481
-15 620 15 343 74 557 220 717 489 120 202 177 434 210 852 14 173 25 2029 13
2213 -5 81 -11 150 -14 152 -3 3 -32 -12 -64 -34 -67 -45 -78 -42 -94 23 -6
22 -25 86 -42 141 -38 116 -41 201 -13 353 22 117 47 158 96 155 19 -2 52 3
74 11 35 12 41 19 49 54 16 77 47 72 -438 72 -273 0 -437 -4 -441 -10 -3 -5
-8 -733 -11 -1617 -4 -1525 -10 -1809 -35 -1922 -15 -68 -76 -176 -124 -220
-52 -48 -91 -60 -215 -68 -103 -6 -199 11 -246 44 -61 44 -135 191 -156 310
-9 50 -13 524 -17 1773 l-6 1705 -447 3 -448 2 0 -97z m2450 -2460 c0 -53 -21
-136 -43 -165 -14 -18 -30 -28 -47 -28 -15 0 -35 -9 -45 -20 -12 -13 -31 -20
-55 -20 -41 0 -68 -24 -160 -142 -25 -32 -48 -58 -52 -58 -5 0 -14 15 -21 33
l-14 32 -17 -30 c-16 -29 -17 -26 -12 105 5 173 28 252 83 296 76 60 93 67
119 54 16 -9 40 -11 81 -5 32 4 75 9 95 10 21 1 41 5 45 9 12 12 43 -38 43
-71z"/>
<path d="M6843 11448 c4 -40 13 -90 20 -111 13 -37 15 -38 31 -21 19 18 18 46
-6 157 -8 38 -14 47 -30 47 -20 0 -21 -4 -15 -72z"/>
<path d="M2215 6696 c-323 -63 -541 -300 -562 -610 -11 -165 41 -316 165 -483
77 -103 103 -132 460 -508 162 -170 330 -353 374 -405 226 -269 294 -452 255
-683 -26 -149 -81 -237 -188 -300 -94 -55 -270 -74 -394 -42 -218 57 -364 254
-417 564 -7 40 -17 75 -23 77 -5 2 -59 -11 -120 -29 l-110 -34 2 -42 c6 -118
120 -383 216 -501 143 -175 326 -260 563 -260 246 0 423 66 569 214 111 112
167 244 181 425 12 164 -22 298 -119 460 -81 135 -161 231 -567 671 -184 201
-356 390 -381 420 -62 74 -131 183 -158 251 -45 113 -43 294 4 396 75 164 300
255 526 213 190 -35 343 -210 404 -462 13 -51 27 -93 32 -92 39 5 223 70 223
79 0 6 -9 47 -21 91 -47 178 -132 330 -242 429 -68 62 -188 126 -282 150 -84
22 -302 28 -390 11z"/>
<path d="M10505 6700 c-174 -28 -308 -92 -417 -201 -142 -143 -218 -344 -239
-637 -17 -239 -6 -1609 14 -1722 55 -319 175 -508 389 -616 130 -65 200 -79
408 -79 162 0 195 3 262 22 305 89 462 281 534 653 14 73 17 195 21 860 3 517
1 818 -6 907 -15 174 -48 303 -112 432 -95 192 -243 309 -459 361 -98 24 -304
34 -395 20z m280 -211 c195 -36 317 -162 377 -389 l23 -85 0 -940 0 -940 -23
-89 c-68 -269 -229 -396 -502 -396 -272 0 -435 131 -506 405 -16 64 -18 142
-21 978 -4 988 -3 1006 52 1152 64 170 193 279 365 308 52 9 179 7 235 -4z"/>
<path d="M12455 6700 c-287 -25 -519 -200 -598 -451 -67 -212 -36 -398 99
-600 69 -102 147 -190 459 -518 495 -520 582 -631 647 -827 30 -90 32 -277 5
-367 -38 -124 -120 -214 -234 -258 -73 -27 -239 -38 -322 -19 -221 48 -379
254 -431 560 -7 41 -16 78 -19 82 -4 4 -58 -7 -121 -25 l-115 -33 2 -40 c5
-116 110 -364 206 -489 101 -131 251 -228 407 -261 105 -22 316 -14 420 16
123 35 225 95 310 180 132 132 184 267 184 480 -1 162 -28 259 -117 409 -81
136 -148 215 -554 657 -385 418 -423 461 -485 559 -84 132 -93 162 -93 315 0
119 3 142 24 194 58 145 220 235 421 236 139 0 238 -38 333 -128 94 -91 152
-201 187 -357 9 -44 21 -80 26 -79 34 4 224 69 224 77 0 30 -47 182 -79 257
-79 185 -208 316 -378 385 -96 39 -266 58 -408 45z"/>
<path d="M3228 6664 c-5 -4 -8 -52 -8 -106 l0 -98 308 -2 307 -3 3 -1482 2
-1483 140 0 140 0 0 1475 c0 1447 0 1474 19 1485 12 6 131 10 315 10 l296 0 0
100 c0 55 -1 100 -2 101 -18 5 -1515 9 -1520 3z"/>
<path d="M4953 6663 c-39 -4 -43 -7 -48 -36 -3 -18 -4 -597 -2 -1287 4 -1377
1 -1307 64 -1471 80 -206 235 -338 468 -400 61 -16 120 -23 245 -26 256 -8
405 26 552 123 129 86 224 234 270 421 22 87 22 95 25 1377 2 789 0 1292 -6
1295 -5 3 -68 5 -140 3 l-130 -3 -4 -1297 c-4 -1408 -2 -1359 -59 -1483 -73
-159 -214 -229 -457 -229 -189 0 -316 38 -403 119 -61 56 -96 126 -119 234
-18 88 -19 154 -19 1373 0 1160 -2 1282 -16 1288 -16 6 -146 5 -221 -1z"/>
<path d="M7066 6663 c-3 -3 -6 -719 -6 -1590 l0 -1583 328 -2 c435 -2 510 0
622 22 147 30 245 82 350 189 92 93 138 172 179 305 52 168 54 202 58 969 6
925 -2 1047 -87 1247 -115 269 -311 407 -629 441 -96 10 -805 12 -815 2z m877
-229 c80 -21 129 -46 184 -97 60 -55 99 -113 128 -192 53 -139 55 -183 55
-1065 0 -806 -3 -886 -35 -1015 -35 -138 -124 -259 -230 -310 -101 -49 -149
-55 -437 -55 l-268 0 0 1368 c0 753 3 1372 7 1375 3 4 125 7 271 7 208 0 277
-3 325 -16z"/>
<path d="M9090 6660 c-13 -8 -15 -195 -15 -1587 l0 -1578 143 -3 142 -3 0
1585 c0 1435 -1 1584 -16 1590 -25 10 -238 7 -254 -4z"/>
</g>
</svg>
