<?xml version="1.0" encoding="UTF-8" ?>
<!DOCTYPE svg PUBLIC "-//W3C//DTD SVG 1.1//EN" "http://www.w3.org/Graphics/SVG/1.1/DTD/svg11.dtd">
<svg width="1176pt" height="850pt" viewBox="0 0 1176 850" version="1.1" xmlns="http://www.w3.org/2000/svg">
<path fill="#fefefe" d=" M 0.00 0.00 L 1176.00 0.00 L 1176.00 850.00 L 0.00 850.00 L 0.00 0.00 Z" />
<path fill="#020202" d=" M 25.79 23.33 C 60.98 23.19 96.17 23.24 131.35 23.31 C 143.52 99.20 155.63 175.10 167.80 251.00 C 171.21 271.45 174.02 292.03 177.88 312.40 C 194.57 216.04 211.13 119.66 227.78 23.29 C 261.73 23.22 295.68 23.26 329.63 23.28 C 329.65 168.26 329.66 313.24 329.63 458.23 C 308.00 458.27 286.37 458.28 264.74 458.22 C 264.41 416.82 264.46 375.41 264.10 334.00 C 263.85 324.67 263.50 315.34 263.81 306.01 C 263.59 272.00 263.48 238.00 263.23 203.99 C 262.95 199.99 262.57 196.00 263.18 192.01 C 263.15 179.53 263.50 167.02 262.52 154.57 C 246.66 255.94 227.94 356.84 212.10 458.21 C 190.17 458.18 168.22 458.48 146.29 458.06 C 128.42 355.68 110.87 253.25 92.90 150.88 C 92.36 195.58 92.51 240.30 92.08 285.00 C 91.80 289.66 91.63 294.32 91.84 298.99 C 91.65 346.99 91.26 395.00 91.20 443.00 C 91.12 448.08 91.44 453.18 90.74 458.23 C 69.10 458.25 47.45 458.30 25.81 458.21 C 25.74 313.25 25.79 168.29 25.79 23.33 Z" />
<path fill="#020202" d=" M 451.48 23.30 C 477.44 23.23 503.41 23.24 529.37 23.29 C 559.52 162.90 589.55 302.53 619.65 442.15 C 620.69 447.51 622.15 452.80 622.95 458.21 C 596.63 458.32 570.31 458.21 544.00 458.27 C 541.42 458.29 538.84 458.30 536.28 458.02 C 530.37 427.10 524.43 396.19 518.45 365.29 C 499.50 365.24 480.55 365.23 461.60 365.29 C 455.94 396.23 450.38 427.19 444.70 458.12 C 415.60 458.40 386.48 458.23 357.38 458.21 C 388.79 313.25 420.00 168.24 451.48 23.30 Z" />
<path fill="#020202" d=" M 625.28 23.37 C 652.93 23.14 680.59 23.27 708.24 23.30 C 718.15 69.71 727.96 116.14 737.82 162.56 C 741.60 179.72 744.88 196.99 748.96 214.08 C 763.92 150.51 778.83 86.93 793.55 23.30 C 820.36 23.23 847.17 23.22 873.99 23.31 C 847.60 117.77 820.89 212.14 794.36 306.55 C 793.54 309.67 792.24 312.72 792.25 316.00 C 792.22 363.40 792.29 410.80 792.21 458.21 C 763.77 458.29 735.33 458.28 706.89 458.21 C 706.79 410.48 706.95 362.73 706.81 315.00 C 704.89 305.44 701.60 296.17 699.20 286.71 C 674.53 198.94 650.03 111.12 625.28 23.37 Z" />
<path fill="#020202" d=" M 897.78 23.29 C 927.09 23.22 956.41 23.26 985.73 23.27 C 985.76 114.51 985.73 205.76 985.74 297.00 C 985.56 313.36 986.15 329.69 986.80 346.03 C 987.88 356.95 987.31 368.55 992.58 378.53 C 995.72 384.62 998.66 391.58 1004.98 395.05 C 1012.34 398.87 1020.97 398.84 1029.08 398.63 C 1036.71 398.22 1045.32 396.74 1050.25 390.25 C 1055.78 382.43 1060.33 373.52 1061.30 363.85 C 1062.81 349.29 1063.53 334.65 1063.58 320.00 C 1063.76 221.10 1063.57 122.20 1063.67 23.30 C 1093.01 23.22 1122.35 23.25 1151.70 23.28 C 1151.71 106.52 1151.70 189.76 1151.70 273.00 C 1151.64 297.52 1152.22 322.14 1149.31 346.54 C 1146.72 367.44 1143.22 388.70 1133.76 407.74 C 1124.90 425.74 1111.53 442.16 1093.53 451.58 C 1068.35 464.88 1039.08 467.93 1011.03 466.24 C 989.06 464.56 966.67 459.27 948.23 446.74 C 934.97 437.64 924.90 424.58 917.41 410.49 C 910.37 397.20 906.29 382.57 903.47 367.86 C 895.63 327.73 898.25 286.64 897.75 246.00 C 897.77 171.76 897.72 97.53 897.78 23.29 Z" />
<path fill="#fefefe" d=" M 490.44 150.75 C 491.52 154.78 492.00 158.94 492.50 163.07 C 499.13 212.42 506.04 261.74 512.55 311.11 C 497.60 311.18 482.64 311.18 467.69 311.10 C 475.23 257.65 482.91 204.21 490.44 150.75 Z" />
<path fill="#020202" d=" M 61.30 499.24 C 76.59 494.22 93.22 493.68 108.92 496.96 C 122.53 499.85 135.15 507.22 144.09 517.92 C 155.42 531.28 161.40 548.45 163.99 565.58 C 156.31 567.98 148.64 570.42 140.94 572.77 C 138.77 556.70 132.77 540.53 120.95 529.05 C 112.51 520.89 100.67 516.76 89.00 517.17 C 75.66 516.87 61.33 520.97 52.50 531.51 C 44.45 541.19 43.10 554.64 44.78 566.71 C 47.69 581.81 57.45 594.35 67.30 605.70 C 89.52 630.13 112.05 654.29 134.31 678.70 C 141.06 686.70 148.30 694.43 153.51 703.59 C 158.01 710.81 162.74 718.14 164.47 726.61 C 169.16 742.64 168.49 760.11 162.73 775.77 C 158.24 787.75 149.53 797.91 138.75 804.72 C 123.83 814.37 105.52 817.50 87.99 816.48 C 70.48 815.40 53.41 807.40 41.81 794.17 C 27.58 778.24 20.06 757.47 16.55 736.66 C 24.59 733.90 32.82 731.72 41.00 729.43 C 42.82 746.02 47.79 762.64 57.77 776.20 C 66.16 787.52 80.07 794.05 94.04 794.45 C 106.72 795.08 120.58 792.14 129.64 782.63 C 138.70 773.67 141.49 760.32 141.31 748.00 C 141.00 733.83 135.17 720.37 126.90 709.07 C 114.68 691.59 99.53 676.50 84.96 661.03 C 74.18 649.81 63.50 638.50 52.78 627.22 C 41.01 614.72 29.38 601.54 22.24 585.75 C 15.87 571.05 16.14 554.08 20.85 538.96 C 26.79 520.11 42.82 505.50 61.30 499.24 Z" />
<path fill="#020202" d=" M 883.43 495.83 C 901.70 493.70 921.00 495.03 937.71 503.27 C 948.15 508.17 956.81 516.41 962.80 526.21 C 970.69 539.12 974.97 554.02 976.55 569.00 C 978.17 582.61 977.57 596.33 977.69 610.00 C 977.69 641.00 977.69 672.00 977.69 703.01 C 977.73 722.49 978.23 742.29 973.14 761.28 C 969.99 773.32 964.69 785.00 956.38 794.37 C 948.77 802.94 938.63 809.13 927.71 812.49 C 915.57 816.33 902.68 817.12 890.03 816.45 C 876.50 815.50 862.79 812.19 851.38 804.60 C 840.45 797.53 832.33 786.70 827.33 774.78 C 820.81 759.29 818.55 742.33 818.33 725.63 C 818.11 692.09 818.30 658.54 818.23 625.00 C 818.36 608.98 817.91 592.94 818.60 576.93 C 819.88 556.24 825.24 534.90 838.58 518.56 C 849.55 505.10 866.53 497.99 883.43 495.83 Z" />
<path fill="#020202" d=" M 1049.57 501.58 C 1059.70 496.90 1070.91 495.27 1081.97 494.86 C 1096.44 494.82 1111.37 497.44 1123.77 505.30 C 1138.32 514.34 1148.05 529.49 1153.35 545.51 C 1155.41 552.08 1157.46 558.77 1157.95 565.68 C 1150.31 567.98 1142.73 570.48 1135.08 572.75 C 1132.70 555.11 1125.63 536.98 1111.20 525.78 C 1099.87 516.94 1084.54 515.80 1070.83 518.19 C 1060.50 520.12 1050.31 525.45 1044.48 534.45 C 1038.66 543.37 1037.57 554.52 1038.68 564.89 C 1040.54 578.33 1048.46 589.88 1056.78 600.22 C 1066.78 612.17 1077.77 623.24 1088.14 634.87 C 1101.78 649.56 1115.32 664.34 1128.85 679.13 C 1135.09 686.60 1141.84 693.76 1146.81 702.19 C 1149.80 707.22 1153.14 712.07 1155.59 717.41 C 1163.68 737.47 1164.09 761.03 1154.70 780.73 C 1146.14 798.54 1128.13 810.36 1109.17 814.46 C 1090.74 818.37 1070.50 817.66 1053.75 808.31 C 1037.18 799.45 1025.90 783.25 1018.86 766.23 C 1015.15 756.63 1012.00 746.65 1011.05 736.36 C 1019.06 734.04 1027.05 731.63 1035.09 729.41 C 1036.61 741.86 1039.57 754.29 1045.35 765.49 C 1049.07 772.73 1053.68 779.79 1060.32 784.68 C 1068.46 791.01 1078.75 794.25 1089.00 794.48 C 1098.90 794.82 1109.21 793.11 1117.66 787.69 C 1125.95 782.36 1131.68 773.55 1133.78 763.98 C 1137.74 747.80 1134.49 730.29 1125.73 716.22 C 1115.34 699.45 1101.82 684.95 1088.29 670.71 C 1076.55 658.44 1064.92 646.08 1053.16 633.84 C 1045.93 626.05 1038.41 618.51 1031.85 610.13 C 1023.38 599.40 1015.39 587.63 1012.72 573.98 C 1010.35 561.33 1011.55 547.98 1016.08 535.94 C 1021.91 520.50 1034.61 508.21 1049.57 501.58 Z" />
<path fill="#020202" d=" M 170.40 499.28 C 220.37 499.26 270.34 499.22 320.32 499.30 C 320.35 506.65 320.35 514.00 320.31 521.36 C 299.82 521.49 279.33 521.32 258.83 521.44 C 258.72 618.22 258.83 715.00 258.78 811.78 C 249.62 811.79 240.47 811.80 231.31 811.77 C 231.25 714.99 231.41 618.21 231.23 521.43 C 211.18 521.34 191.11 521.50 171.06 521.35 L 170.43 520.79 C 170.31 513.62 170.43 506.45 170.40 499.28 Z" />
<path fill="#020202" d=" M 335.34 499.28 C 344.49 499.24 353.64 499.26 362.80 499.27 C 362.84 579.85 362.79 660.42 362.82 741.00 C 363.11 754.57 364.91 769.25 373.95 780.03 C 381.98 789.72 394.96 793.16 407.00 794.18 C 419.75 795.04 433.19 794.64 444.89 788.95 C 453.25 784.92 459.33 777.14 462.45 768.51 C 465.68 759.74 466.64 750.30 466.60 741.01 C 466.64 660.44 466.58 579.86 466.63 499.29 C 475.80 499.26 484.98 499.19 494.15 499.33 C 494.25 571.55 494.16 643.78 494.19 716.00 C 494.17 735.68 494.94 756.05 487.76 774.75 C 482.58 789.09 472.06 801.58 458.21 808.19 C 439.65 817.18 418.21 817.92 398.07 815.51 C 381.42 813.20 364.27 807.04 353.04 793.96 C 339.81 778.65 335.36 757.81 335.36 738.05 C 335.30 658.46 335.34 578.87 335.34 499.28 Z" />
<path fill="#020202" d=" M 545.78 499.34 C 562.18 499.16 578.59 499.31 595.00 499.26 C 612.36 499.42 630.24 498.01 646.94 503.80 C 661.38 508.30 674.23 517.90 681.91 531.02 C 691.30 546.87 695.23 565.43 695.70 583.70 C 696.63 606.44 695.98 629.23 696.17 652.00 C 695.96 679.34 696.76 706.71 695.44 734.03 C 694.04 751.46 690.02 769.31 679.82 783.82 C 671.94 795.26 659.89 803.53 646.64 807.51 C 635.81 811.03 624.33 811.86 613.01 811.79 C 590.60 811.73 568.19 811.91 545.78 811.70 C 545.76 707.58 545.76 603.46 545.78 499.34 Z" />
<path fill="#020202" d=" M 743.23 499.26 C 752.38 499.27 761.53 499.23 770.67 499.29 C 770.67 603.45 770.69 707.61 770.67 811.77 C 761.52 811.81 752.37 811.79 743.22 811.78 C 743.21 707.61 743.19 603.44 743.23 499.26 Z" />
<path fill="#fefefe" d=" M 886.45 517.99 C 899.99 516.15 914.76 516.88 926.62 524.37 C 936.03 530.17 942.22 540.03 945.52 550.40 C 950.01 564.11 950.17 578.72 950.21 593.00 C 950.22 637.33 950.20 681.67 950.22 726.00 C 949.80 739.45 949.06 753.24 943.79 765.81 C 939.65 776.35 931.69 785.64 921.15 790.12 C 909.40 795.18 896.01 795.53 883.59 793.04 C 871.83 790.59 861.26 783.06 855.39 772.54 C 847.98 759.69 846.28 744.55 845.72 730.00 C 845.65 691.67 845.71 653.33 845.69 615.00 C 845.96 598.83 844.91 582.59 846.84 566.50 C 848.53 553.81 852.33 540.78 861.13 531.12 C 867.68 523.90 876.93 519.59 886.45 517.99 Z" />
<path fill="#fefefe" d=" M 573.50 521.50 C 588.35 521.31 603.21 521.40 618.06 521.46 C 631.70 521.54 646.08 526.21 654.89 537.11 C 665.72 550.45 668.07 568.37 668.40 585.01 C 668.43 632.67 668.46 680.33 668.38 727.99 C 667.95 744.22 665.44 761.75 654.54 774.53 C 645.66 785.08 631.50 789.52 618.07 789.57 C 603.20 789.60 588.33 789.78 573.48 789.48 C 573.57 700.16 573.52 610.83 573.50 521.50 Z" />
</svg>
